<?xml version="1.0" encoding="utf-8"?>
<svg version="1.1" xmlns:xlink="http://www.w3.org/1999/xlink" width="60px" height="58px" xmlns="http://www.w3.org/2000/svg">
  <g transform="matrix(1 0 0 1 -59 -683 )">
    <path d="M 89 683  C 105.8 683  119 695.76  119 712  C 119 728.24  105.8 741  89 741  C 72.2 741  59 728.24  59 712  C 59 695.76  72.2 683  89 683  Z " fill-rule="nonzero" fill="#ffffff" stroke="none" />
    <path d="M 89 683.5  C 105.52 683.5  118.5 696.04  118.5 712  C 118.5 727.96  105.52 740.5  89 740.5  C 72.48 740.5  59.5 727.96  59.5 712  C 59.5 696.04  72.48 683.5  89 683.5  Z " stroke-width="1" stroke="#797979" fill="none" />
  </g>
</svg>