<?xml version="1.0" encoding="utf-8"?>
<svg version="1.1" xmlns:xlink="http://www.w3.org/1999/xlink" width="86px" height="86px" xmlns="http://www.w3.org/2000/svg">
  <g transform="matrix(1 0 0 1 -649 -196 )">
    <path d="M 650 239  A 42 42 0 0 1 692 197 A 42 42 0 0 1 734 239 A 42 42 0 0 1 692 281 A 42 42 0 0 1 650 239 Z " fill-rule="nonzero" fill="#cccccc" stroke="none" />
    <path d="M 649.5 239  A 42.5 42.5 0 0 1 692 196.5 A 42.5 42.5 0 0 1 734.5 239 A 42.5 42.5 0 0 1 692 281.5 A 42.5 42.5 0 0 1 649.5 239 Z " stroke-width="1" stroke-dasharray="3,1" stroke="#999999" fill="none" stroke-dashoffset="0.5" />
  </g>
</svg>