<?xml version="1.0" encoding="utf-8"?>
<svg version="1.1" xmlns:xlink="http://www.w3.org/1999/xlink" width="26px" height="22px" xmlns="http://www.w3.org/2000/svg">
  <g transform="matrix(1 0 0 1 -679 -222 )">
    <path d="M 10.2442708333333 10.0018028846155  C 11.0071180555556 9.25701121794873  11.9256944444444 8.88461538461547  13 8.88461538461547  C 14.0743055555556 8.88461538461547  14.9928819444444 9.25701121794873  15.7557291666667 10.0018028846155  C 16.5185763888889 10.746594551282  16.9 11.6434294871794  16.9 12.6923076923076  C 16.9 13.7411858974358  16.5185763888889 14.6380208333333  15.7557291666667 15.3828125  C 14.9928819444444 16.1276041666667  14.0743055555556 16.5  13 16.5  C 11.9256944444444 16.5  11.0071180555556 16.1276041666667  10.2442708333333 15.3828125  C 9.48142361111113 14.6380208333333  9.09999999999999 13.7411858974358  9.09999999999999 12.6923076923076  C 9.09999999999999 11.6434294871794  9.48142361111113 10.746594551282  10.2442708333333 10.0018028846155  Z M 19.5 3.38461538461547  L 22.5333333333333 3.38461538461547  C 23.4902777777778 3.38461538461547  24.3072916666667 3.71514423076928  24.984375 4.37620192307691  C 25.6614583333333 5.03725961538453  26 5.8349358974358  26 6.76923076923072  L 26 18.6153846153845  C 26 19.5496794871794  25.6614583333333 20.3473557692307  24.984375 21.0084134615386  C 24.3072916666667 21.6694711538462  23.4902777777778 22  22.5333333333333 22  L 3.46666666666667 22  C 2.50972222222222 22  1.69270833333334 21.6694711538462  1.015625 21.0084134615386  C 0.338541666666657 20.3473557692307  0 19.5496794871794  0 18.6153846153845  L 0 6.76923076923072  C 0 5.8349358974358  0.338541666666657 5.03725961538453  1.015625 4.37620192307691  C 1.69270833333334 3.71514423076928  2.50972222222222 3.38461538461547  3.46666666666667 3.38461538461547  L 6.5 3.38461538461547  L 7.19062500000001 1.58653846153857  C 7.36215277777777 1.15464743589746  7.67586805555555 0.782251602564202  8.13177083333332 0.469350961538566  C 8.58767361111111 0.156450320512931  9.05486111111111 0  9.53333333333333 0  L 16.4666666666667 0  C 16.9451388888889 0  17.4123263888889 0.156450320512931  17.8682291666667 0.469350961538566  C 18.3241319444444 0.782251602564202  18.6378472222222 1.15464743589746  18.809375 1.58653846153857  L 19.5 3.38461538461547  Z M 8.71406250000001 16.8768028846155  C 9.90121527777777 18.0358573717949  11.3298611111111 18.6153846153845  13 18.6153846153845  C 14.6701388888889 18.6153846153845  16.0987847222222 18.0358573717949  17.2859375 16.8768028846155  C 18.4730902777778 15.7177483974358  19.0666666666667 14.3229166666667  19.0666666666667 12.6923076923076  C 19.0666666666667 11.0616987179487  18.4730902777778 9.66686698717945  17.2859375 8.5078125  C 16.0987847222222 7.34875801282055  14.6701388888889 6.76923076923072  13 6.76923076923072  C 11.3298611111111 6.76923076923072  9.90121527777777 7.34875801282055  8.71406250000001 8.5078125  C 7.52690972222223 9.66686698717945  6.93333333333334 11.0616987179487  6.93333333333334 12.6923076923076  C 6.93333333333334 14.3229166666667  7.52690972222223 15.7177483974358  8.71406250000001 16.8768028846155  Z " fill-rule="nonzero" fill="#666666" stroke="none" transform="matrix(1 0 0 1 679 222 )" />
  </g>
</svg>