<?xml version="1.0" encoding="utf-8"?>
<svg version="1.1" xmlns:xlink="http://www.w3.org/1999/xlink" width="25px" height="25px" xmlns="http://www.w3.org/2000/svg">
  <g transform="matrix(1 0 0 1 -983 -677 )">
    <path d="M 984 689.5  A 11.5 11.5 0 0 1 995.5 678 A 11.5 11.5 0 0 1 1007 689.5 A 11.5 11.5 0 0 1 995.5 701 A 11.5 11.5 0 0 1 984 689.5 Z " fill-rule="nonzero" fill="#ffffff" stroke="none" fill-opacity="0" />
    <path d="M 983.5 689.5  A 12 12 0 0 1 995.5 677.5 A 12 12 0 0 1 1007.5 689.5 A 12 12 0 0 1 995.5 701.5 A 12 12 0 0 1 983.5 689.5 Z " stroke-width="1" stroke-dasharray="3,1" stroke="#999999" fill="none" stroke-dashoffset="0.5" />
  </g>
</svg>