<?xml version="1.0" encoding="utf-8"?>
<svg version="1.1" xmlns:xlink="http://www.w3.org/1999/xlink" width="50px" height="50px" xmlns="http://www.w3.org/2000/svg">
  <g transform="matrix(1 0 0 1 -139 -216 )">
    <path d="M 140 241  A 24 24 0 0 1 164 217 A 24 24 0 0 1 188 241 A 24 24 0 0 1 164 265 A 24 24 0 0 1 140 241 Z " fill-rule="nonzero" fill="#d7d7d7" stroke="none" />
    <path d="M 139.5 241  A 24.5 24.5 0 0 1 164 216.5 A 24.5 24.5 0 0 1 188.5 241 A 24.5 24.5 0 0 1 164 265.5 A 24.5 24.5 0 0 1 139.5 241 Z " stroke-width="1" stroke-dasharray="3,1" stroke="#999999" fill="none" stroke-dashoffset="0.5" />
  </g>
</svg>