<?xml version="1.0" encoding="utf-8"?>
<svg version="1.1" xmlns:xlink="http://www.w3.org/1999/xlink" width="69px" height="69px" xmlns="http://www.w3.org/2000/svg">
  <g transform="matrix(1 0 0 1 -125 -263 )">
    <path d="M 69 34.5  C 69 15.447375  53.552625 0  34.5 0  C 15.447375 0  0 15.447375  0 34.5  C 0 53.552625  15.447375 69  34.5 69  C 53.552625 69  69 53.552625  69 34.5  Z M 37 8.610625  L 37 37  L 14.360625 37  C 12.779375 37.375  11.5 36.095625  11.5 34.514375  L 11.5 34.48275  C 11.5 32.904375  12.779375 31.625  14.360625 32  L 32 32  L 32 8.610625  C 31.625 7.02937499999999  32.904375 5.75  34.485625 5.75  L 34.51725 5.75  C 36.095625 5.75  37.375 7.02937499999999  37 8.610625  Z " fill-rule="nonzero" fill="#000000" stroke="none" transform="matrix(1 0 0 1 125 263 )" />
  </g>
</svg>