<?xml version="1.0" encoding="utf-8"?>
<svg version="1.1" xmlns:xlink="http://www.w3.org/1999/xlink" width="50px" height="50px" xmlns="http://www.w3.org/2000/svg">
  <g transform="matrix(1 0 0 1 -116 -255 )">
    <path d="M 117 280  A 24 24 0 0 1 141 256 A 24 24 0 0 1 165 280 A 24 24 0 0 1 141 304 A 24 24 0 0 1 117 280 Z " fill-rule="nonzero" fill="#ffffff" stroke="none" fill-opacity="0" />
    <path d="M 116.5 280  A 24.5 24.5 0 0 1 141 255.5 A 24.5 24.5 0 0 1 165.5 280 A 24.5 24.5 0 0 1 141 304.5 A 24.5 24.5 0 0 1 116.5 280 Z " stroke-width="1" stroke-dasharray="3,1" stroke="#999999" fill="none" stroke-dashoffset="0.5" />
  </g>
</svg>