<?xml version="1.0" encoding="utf-8"?>
<svg version="1.1" xmlns:xlink="http://www.w3.org/1999/xlink" width="5px" height="18px" xmlns="http://www.w3.org/2000/svg">
  <g transform="matrix(1 0 0 1 -338 -231 )">
    <path d="M 4.63541666666667 13.4488636363636  C 4.87847222222222 13.6875  5 13.9772727272727  5 14.3181818181818  L 5 16.7727272727273  C 5 17.1136363636364  4.87847222222222 17.4034090909091  4.63541666666667 17.6420454545455  C 4.39236111111111 17.8806818181818  4.09722222222222 18  3.75 18  L 1.25 18  C 0.902777777777778 18  0.607638888888889 17.8806818181818  0.364583333333333 17.6420454545455  C 0.121527777777778 17.4034090909091  0 17.1136363636364  0 16.7727272727273  L 0 14.3181818181818  C 0 13.9772727272727  0.121527777777778 13.6875  0.364583333333333 13.4488636363636  C 0.607638888888889 13.2102272727273  0.902777777777778 13.0909090909091  1.25 13.0909090909091  L 3.75 13.0909090909091  C 4.09722222222222 13.0909090909091  4.39236111111111 13.2102272727273  4.63541666666667 13.4488636363636  Z M 4.63541666666667 6.90340909090909  C 4.87847222222222 7.14204545454545  5 7.43181818181818  5 7.77272727272727  L 5 10.2272727272727  C 5 10.5681818181818  4.87847222222222 10.8579545454545  4.63541666666667 11.0965909090909  C 4.39236111111111 11.3352272727273  4.09722222222222 11.4545454545455  3.75 11.4545454545455  L 1.25 11.4545454545455  C 0.902777777777778 11.4545454545455  0.607638888888889 11.3352272727273  0.364583333333333 11.0965909090909  C 0.121527777777778 10.8579545454545  0 10.5681818181818  0 10.2272727272727  L 0 7.77272727272727  C 0 7.43181818181818  0.121527777777778 7.14204545454545  0.364583333333333 6.90340909090909  C 0.607638888888889 6.66477272727273  0.902777777777778 6.54545454545455  1.25 6.54545454545455  L 3.75 6.54545454545455  C 4.09722222222222 6.54545454545455  4.39236111111111 6.66477272727273  4.63541666666667 6.90340909090909  Z M 4.63541666666667 0.357954545454546  C 4.87847222222222 0.596590909090908  5 0.886363636363636  5 1.22727272727273  L 5 3.68181818181818  C 5 4.02272727272727  4.87847222222222 4.3125  4.63541666666667 4.55113636363636  C 4.39236111111111 4.78977272727273  4.09722222222222 4.90909090909091  3.75 4.90909090909091  L 1.25 4.90909090909091  C 0.902777777777778 4.90909090909091  0.607638888888889 4.78977272727273  0.364583333333333 4.55113636363636  C 0.121527777777778 4.3125  0 4.02272727272727  0 3.68181818181818  L 0 1.22727272727273  C 0 0.886363636363636  0.121527777777778 0.596590909090908  0.364583333333333 0.357954545454546  C 0.607638888888889 0.119318181818181  0.902777777777778 0  1.25 0  L 3.75 0  C 4.09722222222222 0  4.39236111111111 0.119318181818181  4.63541666666667 0.357954545454546  Z " fill-rule="nonzero" fill="#000000" stroke="none" transform="matrix(1 0 0 1 338 231 )" />
  </g>
</svg>