<?xml version="1.0" encoding="utf-8"?>
<svg version="1.1" xmlns:xlink="http://www.w3.org/1999/xlink" width="35px" height="22px" xmlns="http://www.w3.org/2000/svg">
  <g transform="matrix(1 0 0 1 -285 -298 )">
    <path d="M 18.995361328125 14.41171875  C 19.456787109375 13.32890625  19.6875 12.1916666666667  19.6875 11  C 19.6875 9.80833333333333  19.456787109375 8.67109375  18.995361328125 7.58828125  C 18.533935546875 6.50546875  17.91015625 5.56875  17.1240234375 4.778125  C 16.337890625 3.9875  15.406494140625 3.36015625  14.329833984375 2.89609375  C 13.253173828125 2.43203125  12.1223958333333 2.2  10.9375 2.2  C 9.75260416666667 2.2  8.621826171875 2.43203125  7.545166015625 2.89609375  C 6.468505859375 3.36015625  5.537109375 3.9875  4.7509765625 4.778125  C 3.96484375 5.56875  3.341064453125 6.50546875  2.879638671875 7.58828125  C 2.418212890625 8.67109375  2.1875 9.80833333333333  2.1875 11  C 2.1875 12.1916666666667  2.418212890625 13.32890625  2.879638671875 14.41171875  C 3.341064453125 15.49453125  3.96484375 16.43125  4.7509765625 17.221875  C 5.537109375 18.0125  6.468505859375 18.63984375  7.545166015625 19.10390625  C 8.621826171875 19.56796875  9.75260416666667 19.8  10.9375 19.8  C 12.1223958333333 19.8  13.253173828125 19.56796875  14.329833984375 19.10390625  C 15.406494140625 18.63984375  16.337890625 18.0125  17.1240234375 17.221875  C 17.91015625 16.43125  18.533935546875 15.49453125  18.995361328125 14.41171875  Z M 32.120361328125 14.41171875  C 32.581787109375 13.32890625  32.8125 12.1916666666667  32.8125 11  C 32.8125 9.80833333333333  32.581787109375 8.67109375  32.120361328125 7.58828125  C 31.658935546875 6.50546875  31.03515625 5.56875  30.2490234375 4.778125  C 29.462890625 3.9875  28.531494140625 3.36015625  27.454833984375 2.89609375  C 26.378173828125 2.43203125  25.2473958333333 2.2  24.0625 2.2  L 17.4658203125 2.2  C 18.8216145833333 3.23125  19.8954264322917 4.51458333333333  20.687255859375 6.05  C 21.4790852864583 7.58541666666667  21.875 9.23541666666666  21.875 11  C 21.875 12.7645833333333  21.4790852864583 14.4145833333333  20.687255859375 15.95  C 19.8954264322917 17.4854166666667  18.8216145833333 18.76875  17.4658203125 19.8  L 24.0625 19.8  C 25.2473958333333 19.8  26.378173828125 19.56796875  27.454833984375 19.10390625  C 28.531494140625 18.63984375  29.462890625 18.0125  30.2490234375 17.221875  C 31.03515625 16.43125  31.658935546875 15.49453125  32.120361328125 14.41171875  Z M 34.12841796875 6.72890625  C 34.70947265625 8.08671875  35 9.51041666666667  35 11  C 35 12.4895833333333  34.70947265625 13.91328125  34.12841796875 15.27109375  C 33.54736328125 16.62890625  32.769775390625 17.79765625  31.795654296875 18.77734375  C 30.821533203125 19.75703125  29.659423828125 20.5390625  28.309326171875 21.1234375  C 26.959228515625 21.7078125  25.5436197916667 22  24.0625 22  L 10.9375 22  C 9.45638020833333 22  8.040771484375 21.7078125  6.690673828125 21.1234375  C 5.340576171875 20.5390625  4.178466796875 19.75703125  3.204345703125 18.77734375  C 2.230224609375 17.79765625  1.45263671875 16.62890625  0.87158203125 15.27109375  C 0.29052734375 13.91328125  0 12.4895833333333  0 11  C 0 9.51041666666667  0.29052734375 8.08671875  0.87158203125 6.72890625  C 1.45263671875 5.37109375  2.230224609375 4.20234375  3.204345703125 3.22265625  C 4.178466796875 2.24296875  5.340576171875 1.4609375  6.690673828125 0.876562499999999  C 8.040771484375 0.2921875  9.45638020833333 0  10.9375 0  L 24.0625 0  C 25.5436197916667 0  26.959228515625 0.2921875  28.309326171875 0.876562499999999  C 29.659423828125 1.4609375  30.821533203125 2.24296875  31.795654296875 3.22265625  C 32.769775390625 4.20234375  33.54736328125 5.37109375  34.12841796875 6.72890625  Z " fill-rule="nonzero" fill="#555555" stroke="none" transform="matrix(1 0 0 1 285 298 )" />
  </g>
</svg>