<?xml version="1.0" encoding="utf-8"?>
<svg version="1.1" xmlns:xlink="http://www.w3.org/1999/xlink" width="38px" height="22px" xmlns="http://www.w3.org/2000/svg">
  <g transform="matrix(1 0 0 1 -285 -504 )">
    <path d="M 20.62353515625 14.41171875  C 21.12451171875 13.32890625  21.375 12.1916666666667  21.375 11  C 21.375 9.80833333333333  21.12451171875 8.67109375  20.62353515625 7.58828125  C 20.12255859375 6.50546875  19.4453125 5.56875  18.591796875 4.778125  C 17.73828125 3.9875  16.72705078125 3.36015625  15.55810546875 2.89609375  C 14.38916015625 2.43203125  13.1614583333333 2.2  11.875 2.2  C 10.5885416666667 2.2  9.36083984375 2.43203125  8.19189453125 2.89609375  C 7.02294921875 3.36015625  6.01171875 3.9875  5.158203125 4.778125  C 4.3046875 5.56875  3.62744140625 6.50546875  3.12646484375 7.58828125  C 2.62548828125 8.67109375  2.375 9.80833333333333  2.375 11  C 2.375 12.1916666666667  2.62548828125 13.32890625  3.12646484375 14.41171875  C 3.62744140625 15.49453125  4.3046875 16.43125  5.158203125 17.221875  C 6.01171875 18.0125  7.02294921875 18.63984375  8.19189453125 19.10390625  C 9.36083984375 19.56796875  10.5885416666667 19.8  11.875 19.8  C 13.1614583333333 19.8  14.38916015625 19.56796875  15.55810546875 19.10390625  C 16.72705078125 18.63984375  17.73828125 18.0125  18.591796875 17.221875  C 19.4453125 16.43125  20.12255859375 15.49453125  20.62353515625 14.41171875  Z M 34.87353515625 14.41171875  C 35.37451171875 13.32890625  35.625 12.1916666666667  35.625 11  C 35.625 9.80833333333333  35.37451171875 8.67109375  34.87353515625 7.58828125  C 34.37255859375 6.50546875  33.6953125 5.56875  32.841796875 4.778125  C 31.98828125 3.9875  30.97705078125 3.36015625  29.80810546875 2.89609375  C 28.63916015625 2.43203125  27.4114583333333 2.2  26.125 2.2  L 18.962890625 2.2  C 20.4348958333333 3.23125  21.6007486979167 4.51458333333333  22.46044921875 6.05  C 23.3201497395833 7.58541666666667  23.75 9.23541666666666  23.75 11  C 23.75 12.7645833333333  23.3201497395833 14.4145833333333  22.46044921875 15.95  C 21.6007486979167 17.4854166666667  20.4348958333333 18.76875  18.962890625 19.8  L 26.125 19.8  C 27.4114583333333 19.8  28.63916015625 19.56796875  29.80810546875 19.10390625  C 30.97705078125 18.63984375  31.98828125 18.0125  32.841796875 17.221875  C 33.6953125 16.43125  34.37255859375 15.49453125  34.87353515625 14.41171875  Z M 37.0537109375 6.72890625  C 37.6845703125 8.08671875  38 9.51041666666667  38 11  C 38 12.4895833333333  37.6845703125 13.91328125  37.0537109375 15.27109375  C 36.4228515625 16.62890625  35.57861328125 17.79765625  34.52099609375 18.77734375  C 33.46337890625 19.75703125  32.20166015625 20.5390625  30.73583984375 21.1234375  C 29.27001953125 21.7078125  27.7330729166667 22  26.125 22  L 11.875 22  C 10.2669270833333 22  8.72998046875 21.7078125  7.26416015625 21.1234375  C 5.79833984375 20.5390625  4.53662109375 19.75703125  3.47900390625 18.77734375  C 2.42138671875 17.79765625  1.5771484375 16.62890625  0.9462890625 15.27109375  C 0.3154296875 13.91328125  0 12.4895833333333  0 11  C 0 9.51041666666667  0.3154296875 8.08671875  0.9462890625 6.72890625  C 1.5771484375 5.37109375  2.42138671875 4.20234375  3.47900390625 3.22265625  C 4.53662109375 2.24296875  5.79833984375 1.4609375  7.26416015625 0.876562499999999  C 8.72998046875 0.2921875  10.2669270833333 0  11.875 0  L 26.125 0  C 27.7330729166667 0  29.27001953125 0.2921875  30.73583984375 0.876562499999999  C 32.20166015625 1.4609375  33.46337890625 2.24296875  34.52099609375 3.22265625  C 35.57861328125 4.20234375  36.4228515625 5.37109375  37.0537109375 6.72890625  Z " fill-rule="nonzero" fill="#555555" stroke="none" transform="matrix(1 0 0 1 285 504 )" />
  </g>
</svg>