<?xml version="1.0" encoding="utf-8"?>
<svg version="1.1" xmlns:xlink="http://www.w3.org/1999/xlink" width="55px" height="55px" xmlns="http://www.w3.org/2000/svg">
  <g transform="matrix(1 0 0 1 -60 -524 )">
    <path d="M 87.5 524  C 102.9 524  115 536.1  115 551.5  C 115 566.9  102.9 579  87.5 579  C 72.1 579  60 566.9  60 551.5  C 60 536.1  72.1 524  87.5 524  Z " fill-rule="nonzero" fill="#ffffff" stroke="none" />
    <path d="M 87.5 524.5  C 102.62 524.5  114.5 536.38  114.5 551.5  C 114.5 566.62  102.62 578.5  87.5 578.5  C 72.38 578.5  60.5 566.62  60.5 551.5  C 60.5 536.38  72.38 524.5  87.5 524.5  Z " stroke-width="1" stroke="#797979" fill="none" />
  </g>
</svg>