<?xml version="1.0" encoding="utf-8"?>
<svg version="1.1" xmlns:xlink="http://www.w3.org/1999/xlink" width="59px" height="58px" xmlns="http://www.w3.org/2000/svg">
  <g transform="matrix(1 0 0 1 -86 -612 )">
    <path d="M 115.5 612  C 132.02 612  145 624.76  145 641  C 145 657.24  132.02 670  115.5 670  C 98.98 670  86 657.24  86 641  C 86 624.76  98.98 612  115.5 612  Z " fill-rule="nonzero" fill="#ffffff" stroke="none" />
    <path d="M 115.5 612.5  C 131.74 612.5  144.5 625.04  144.5 641  C 144.5 656.96  131.74 669.5  115.5 669.5  C 99.26 669.5  86.5 656.96  86.5 641  C 86.5 625.04  99.26 612.5  115.5 612.5  Z " stroke-width="1" stroke="#797979" fill="none" />
  </g>
</svg>